<svg width="24" height="25" viewBox="0 0 24 25" fill="none" xmlns="http://www.w3.org/2000/svg">
<path fill-rule="evenodd" clip-rule="evenodd" d="M2 6C2 4.067 3.567 2.5 5.5 2.5C7.433 2.5 9 4.067 9 6C9 7.933 7.433 9.5 5.5 9.5C3.567 9.5 2 7.933 2 6ZM5.5 4.5C4.67157 4.5 4 5.17157 4 6C4 6.82843 4.67157 7.5 5.5 7.5C6.32843 7.5 7 6.82843 7 6C7 5.17157 6.32843 4.5 5.5 4.5Z" fill="white"/>
<path d="M17.5001 10.5C17.278 10.5 17.0598 10.51 16.8456 10.5297V12.5416C17.054 12.5144 17.2722 12.5 17.5001 12.5C20.2687 12.5 22 14.7017 22 17.5H24C24 13.8983 21.6522 10.5 17.5001 10.5Z" fill="white"/>
<path d="M12.0001 15.5C7.84797 15.5 5.5 18.8983 5.5 22.5H7.5C7.5 19.7017 9.23138 17.5 12.0001 17.5C14.7687 17.5 16.5 19.7017 16.5 22.5H18.5C18.5 18.8983 16.1522 15.5 12.0001 15.5Z" fill="white"/>
<path fill-rule="evenodd" clip-rule="evenodd" d="M18.5 2.5C16.567 2.5 15 4.067 15 6C15 7.933 16.567 9.5 18.5 9.5C20.433 9.5 22 7.933 22 6C22 4.067 20.433 2.5 18.5 2.5ZM17 6C17 5.17157 17.6716 4.5 18.5 4.5C19.3284 4.5 20 5.17157 20 6C20 6.82843 19.3284 7.5 18.5 7.5C17.6716 7.5 17 6.82843 17 6Z" fill="white"/>
<path fill-rule="evenodd" clip-rule="evenodd" d="M8.5 11C8.5 9.067 10.067 7.5 12 7.5C13.933 7.5 15.5 9.067 15.5 11C15.5 12.933 13.933 14.5 12 14.5C10.067 14.5 8.5 12.933 8.5 11ZM12 9.5C11.1716 9.5 10.5 10.1716 10.5 11C10.5 11.8284 11.1716 12.5 12 12.5C12.8284 12.5 13.5 11.8284 13.5 11C13.5 10.1716 12.8284 9.5 12 9.5Z" fill="white"/>
<path d="M6.49993 10.5C6.72198 10.5 6.94021 10.51 7.1544 10.5297V12.5416C6.94597 12.5144 6.72783 12.5 6.49993 12.5C3.73127 12.5 2 14.7017 2 17.5H0C0 13.8983 2.34779 10.5 6.49993 10.5Z" fill="white"/>
</svg>
