<svg width="24" height="25" viewBox="0 0 24 25" fill="none" xmlns="http://www.w3.org/2000/svg">
<path fill-rule="evenodd" clip-rule="evenodd" d="M12 2.5C9.23858 2.5 7 4.73858 7 7.5C7 10.2614 9.23858 12.5 12 12.5C14.7614 12.5 17 10.2614 17 7.5C17 4.73858 14.7614 2.5 12 2.5ZM9 7.5C9 5.84315 10.3431 4.5 12 4.5C13.6569 4.5 15 5.84315 15 7.5C15 9.15685 13.6569 10.5 12 10.5C10.3431 10.5 9 9.15685 9 7.5Z" fill="white"/>
<path d="M13 16.5V14.5H11V16.5H13Z" fill="white"/>
<path d="M13 18.5V22.5H11V18.5H13Z" fill="white"/>
<path d="M8.36557 14.3047C5.21005 15.8222 3.5 19.2013 3.5 22.5H5.5C5.5 19.8266 6.89001 17.2335 9.23235 16.1071L8.36557 14.3047Z" fill="white"/>
<path d="M14.7678 16.1071C17.1101 17.2335 18.5 19.8265 18.5 22.5H20.5C20.5 19.2013 18.7901 15.8222 15.6346 14.3047L14.7678 16.1071Z" fill="white"/>
</svg>
