<svg width="24" height="25" viewBox="0 0 24 25" fill="none" xmlns="http://www.w3.org/2000/svg">
<path d="M9 15.5C9 14.9477 9.44772 14.5 10 14.5H14C14.5523 14.5 15 14.9477 15 15.5V19.5H19V12.9142L12 5.91421L5 12.9142V19.5H9V15.5ZM11 16.5V20.5C11 21.0523 10.5523 21.5 10 21.5H4C3.44772 21.5 3 21.0523 3 20.5V12.5C3 12.2348 3.10536 11.9804 3.29289 11.7929L11.2929 3.79289C11.6834 3.40237 12.3166 3.40237 12.7071 3.79289L20.7071 11.7929C20.8946 11.9804 21 12.2348 21 12.5V20.5C21 21.0523 20.5523 21.5 20 21.5H14C13.4477 21.5 13 21.0523 13 20.5V16.5H11Z" fill="white"/>
</svg>
