<svg width="90" height="20" viewBox="0 0 90 20" fill="none" xmlns="http://www.w3.org/2000/svg">
<path d="M37.293 5.52051L41.0947 15.5312C42.1665 13.6101 42.8952 9.1606 42.7334 5.52051H45.9688C46.0699 14.5195 43.5013 20 37.7783 20C34.644 19.9998 32.6221 18.0585 32.6221 15.5713C32.6221 13.3266 34.1185 11.6882 36.2822 11.2637L33.6738 5.52051H37.293ZM52.9863 5.19727C56.1812 5.19738 58.244 7.05759 58.2441 9.26172C58.2441 10.6095 57.6362 11.7622 56.5166 12.3857C57.7926 12.9865 58.5467 14.1218 58.5469 15.6113C58.5469 18.3816 56.1005 19.9999 52.7236 20C49.7715 20 47.6275 19.0093 46.0098 17.4727L47.9512 15.126C49.0229 16.2988 50.7816 17.1688 52.6621 17.1689C54.3204 17.1689 55.3525 16.481 55.3525 15.4092C55.3523 14.3983 54.4415 13.8125 52.5205 13.8125H49.4473V11.1826H52.46C54.2999 11.1826 55.0486 10.516 55.0488 9.58594C55.0488 8.67591 54.2803 8.04866 52.8447 8.02832C51.51 8.00818 50.0736 8.41268 48.5771 9.28223L47.2021 6.69336C48.7997 5.7227 50.7821 5.19727 52.9863 5.19727ZM66.96 5.27832C72.1368 5.27838 74.2603 9.30228 73.6133 14.0342H63.0566C63.542 15.9755 65.0589 17.1689 67.2227 17.1689C69.2247 17.1689 70.5397 16.2592 71.3486 15.3896L73.3906 17.5527C72.5211 18.5033 70.2557 20 67.2021 20C62.3492 19.9998 59.6798 16.9264 59.6797 12.5586C59.6797 8.61521 62.3897 5.27832 66.96 5.27832ZM85.2812 5.19727C87.5256 5.19727 88.9619 6.69401 88.9619 9.30273C88.9618 11.8709 87.6678 14.682 85.9092 16.6436C87.1419 17.169 88.5571 17.0475 89.3857 17.0879V19.96C87.91 20.0004 85.625 19.9591 83.7451 18.665C82.5923 19.5548 81.3988 19.9999 80.0439 20C74.5435 20 73.7146 13.8927 76.6064 5.52051H79.9229C77.3749 13.2658 77.4351 17.2695 80.5088 17.2695C81.0549 17.2695 81.6009 17.1486 82.1064 16.8857C81.2167 15.6522 80.6305 13.9537 80.6709 11.4463C80.7113 7.05825 82.8144 5.19751 85.2812 5.19727ZM20.5898 5.52051L23.3955 13.043L26.1309 5.52051H30.9639V19.6768H27.8291V8.45117L24.5938 16.5215H22.0859L18.8506 8.45117V19.6768H15.7158V5.52051H20.5898ZM6.59961 5.53027C10.1207 5.53027 12.2937 7.34145 12.2939 9.95703C12.2939 10.1984 12.2745 10.42 12.2344 10.6211C13.4817 11.5266 14.2255 12.8951 14.2256 14.5449C14.2256 17.3821 11.972 19.6758 8.26953 19.6758H0V5.53027H6.59961ZM37.293 13.4678C36.363 13.6498 35.6554 14.3579 35.6553 15.4092C35.6553 16.6024 36.5857 17.3711 37.8799 17.3711C38.2843 17.3711 38.6484 17.31 38.9922 17.209L37.293 13.4678ZM3.09863 8.24707V16.96H8.18945C10.0205 16.96 11.168 15.9335 11.168 14.4043C11.168 14.1025 11.127 13.8006 11.0264 13.5391C10.302 14.8872 8.95381 15.7725 7.36426 15.7725C5.39245 15.7723 4.10449 14.565 4.10449 12.7139C4.10463 11.1444 5.31228 9.47465 8.39062 9.47461C8.73254 9.47461 9.07462 9.49495 9.39648 9.53516C8.93358 8.64988 7.86725 8.24707 6.49902 8.24707H3.09863ZM85.3213 7.82617C84.4516 7.82672 83.6436 9.48473 83.6436 11.8301C83.6436 13.2053 83.8462 14.2369 84.2305 14.9648C85.342 13.3875 86.0497 10.9608 86.0498 9.01953C86.0498 8.23086 85.7868 7.82617 85.3213 7.82617ZM8.20996 11.8086C7.14343 11.8086 6.55957 12.2314 6.55957 12.7344C6.55967 13.1971 6.96223 13.459 7.58594 13.459C8.43086 13.459 9.216 12.8754 9.4375 11.9902C9.07537 11.8695 8.67265 11.8086 8.20996 11.8086ZM66.9795 8.10938C64.9575 8.10957 63.4616 9.46414 63.0166 11.4053H70.458C70.2759 9.38315 68.9814 8.10938 66.9795 8.10938ZM81.2568 0C80.9737 0.950506 81.1964 1.98145 82.4502 1.98145C83.8459 1.98141 84.5728 0.829088 84.7344 0H87.4443C87.2226 1.55721 85.7259 4.44922 81.8838 4.44922C78.4663 4.44918 77.7582 1.77961 78.2637 0H81.2568Z" fill="white"/>
</svg>
