<svg width="25" height="25" viewBox="0 0 25 25" fill="none" xmlns="http://www.w3.org/2000/svg">
<g clip-path="url(#clip0_5_9537)">
<path d="M14.583 5.20833C14.583 4.0625 13.6455 3.125 12.4997 3.125C11.3538 3.125 10.4163 4.0625 10.4163 5.20833C10.4163 6.35417 11.3538 7.29167 12.4997 7.29167C13.6455 7.29167 14.583 6.35417 14.583 5.20833ZM14.583 19.7917C14.583 18.6458 13.6455 17.7083 12.4997 17.7083C11.3538 17.7083 10.4163 18.6458 10.4163 19.7917C10.4163 20.9375 11.3538 21.875 12.4997 21.875C13.6455 21.875 14.583 20.9375 14.583 19.7917ZM14.583 12.5C14.583 11.3542 13.6455 10.4167 12.4997 10.4167C11.3538 10.4167 10.4163 11.3542 10.4163 12.5C10.4163 13.6458 11.3538 14.5833 12.4997 14.5833C13.6455 14.5833 14.583 13.6458 14.583 12.5Z" fill="#131330"/>
</g>
<defs>
<clipPath id="clip0_5_9537">
<rect width="25" height="25" fill="white" transform="translate(25) rotate(90)"/>
</clipPath>
</defs>
</svg>
