<svg width="24" height="25" viewBox="0 0 24 25" fill="none" xmlns="http://www.w3.org/2000/svg">
<g opacity="0.7">
<path fill-rule="evenodd" clip-rule="evenodd" d="M5.67282 3.41896C6.59287 2.49891 8.13259 2.68846 8.80202 3.80418L10.7414 7.03641C11.2135 7.82337 11.0895 8.83068 10.4406 9.47962L9.41418 10.506C9.62395 10.9361 10.1502 11.7661 11.445 13.0609C12.7399 14.3558 13.5699 14.882 14 15.0918L15.0264 14.0654C15.6753 13.4165 16.6826 13.2925 17.4696 13.7646L20.7018 15.704C21.8175 16.3734 22.0071 17.9131 21.087 18.8332L18.5785 21.3417C18.022 21.8982 17.2186 22.2574 16.3381 22.1477C14.5913 21.9302 10.6451 21.0512 7.02369 17.4952C3.36808 13.9056 2.53246 9.88658 2.34212 8.1338C2.24806 7.26762 2.60684 6.48495 3.15109 5.94069L5.67282 3.41896ZM7.08703 4.83317L4.56531 7.3549C4.37504 7.54518 4.31234 7.75134 4.33043 7.91788C4.4908 9.39468 5.21028 12.9115 8.42496 16.0681C11.6322 19.2174 15.1085 19.9791 16.5852 20.1631C16.7574 20.1845 16.9705 20.1212 17.1642 19.9275L19.6728 17.419L16.4406 15.4796L15.2623 16.6579C14.9231 16.9971 14.3039 17.3325 13.5879 17.0846C12.8943 16.8445 11.7523 16.1967 10.0308 14.4751C8.30928 12.7536 7.66149 11.6117 7.42133 10.918C7.17346 10.202 7.50888 9.5829 7.84807 9.2437L9.02637 8.0654L7.08703 4.83317Z" fill="white"/>
</g>
</svg>
