<svg width="24" height="25" viewBox="0 0 24 25" fill="none" xmlns="http://www.w3.org/2000/svg">
<path fill-rule="evenodd" clip-rule="evenodd" d="M4.96983 10.8364H7.50712C8.51631 10.8364 9.35246 10.4871 10.0156 9.78837C10.6788 9.08969 10.9959 8.20041 10.9959 7.15235C10.9959 6.13606 10.6788 5.24678 10.0156 4.54806C9.35246 3.84938 8.51631 3.5 7.50712 3.5H3.23984V9.12143H2V10.8364H3.23984V12.0433H2V13.7266H3.23984V15.4416H4.96983V13.7266H8.42981V12.0433H4.96983V10.8364ZM7.50712 9.12143H4.96983V5.21501H7.50712C8.02612 5.21501 8.45862 5.40557 8.77581 5.75495C9.1218 6.13606 9.2948 6.61245 9.2948 7.15235C9.2948 7.72402 9.1218 8.20041 8.77581 8.58153C8.42981 8.93087 8.02612 9.12143 7.50712 9.12143Z" fill="white"/>
<path d="M17.5865 10.3036L16.8872 7.44414C18.4921 8.53024 19.6225 10.3921 19.9315 12.5887C20.4687 16.4077 17.8247 19.9164 14.049 20.4428C11.3801 20.8149 8.84488 19.6017 7.39556 17.505L5.74876 18.6334C7.60631 21.3206 10.8714 22.8955 14.3262 22.4138C19.2134 21.7324 22.5991 17.2022 21.9113 12.3127C21.5527 9.76332 20.2618 7.45804 18.3084 6.0063L20.5438 5.4645L20.0709 3.53072L14.2196 4.94892L15.6441 10.7744L17.5865 10.3036Z" fill="white"/>
</svg>
