<svg width="24" height="24" viewBox="0 0 24 24" fill="none" xmlns="http://www.w3.org/2000/svg">
<g clip-path="url(#clip0_703_14419)">
<path d="M10.7878 2C15.6411 2 19.5756 5.93442 19.5756 10.7878C19.5756 12.818 18.8871 14.6874 17.7309 16.1753L22 20.4465L20.4465 22L16.1753 17.7309C14.6874 18.8871 12.818 19.5756 10.7878 19.5756C5.93442 19.5756 2 15.6411 2 10.7878C2 5.93442 5.93442 2 10.7878 2ZM10.7878 4.19694C7.14776 4.19694 4.19694 7.14776 4.19694 10.7878C4.19694 14.4278 7.14776 17.3786 10.7878 17.3786C14.4278 17.3786 17.3786 14.4278 17.3786 10.7878C17.3786 7.14776 14.4278 4.19694 10.7878 4.19694Z" fill="#ABABB2"/>
</g>
<defs>
<clipPath id="clip0_703_14419">
<rect width="24" height="24" fill="white"/>
</clipPath>
</defs>
</svg>
